<svg class='iconFavourites' width="24" height="24" viewBox="0 0 24 24" fill="none" xmlns="http://www.w3.org/2000/svg">
<rect width="24" height="24" rx="3" fill="white"/>
<path d="M18.8326 6.38856C18.0435 5.49313 16.9487 5 15.75 5C14.0641 5 12.9968 6.00688 12.3983 6.85156C12.243 7.07075 12.1109 7.29053 12 7.49734C11.8891 7.29053 11.757 7.07075 11.6017 6.85156C11.0032 6.00688 9.93587 5 8.25 5C7.05131 5 5.95653 5.49316 5.16734 6.38859C4.41459 7.24278 4 8.38678 4 9.60984C4 10.9412 4.51978 12.1795 5.63578 13.5067C6.63319 14.693 8.06809 15.9157 9.72969 17.3316C10.3488 17.8593 10.9891 18.4049 11.6708 19.0013L11.6912 19.0192C11.7796 19.0966 11.8898 19.1353 12 19.1353C12.1102 19.1353 12.2204 19.0966 12.3088 19.0192L12.3292 19.0013C13.0109 18.4049 13.6512 17.8593 14.2704 17.3316C15.9319 15.9158 17.3668 14.693 18.3642 13.5067C19.4802 12.1794 20 10.9412 20 9.60984C20 8.38678 19.5854 7.24278 18.8326 6.38856ZM13.6623 16.6181C13.1285 17.0729 12.5792 17.541 12 18.0445C11.4208 17.541 10.8715 17.0729 10.3376 16.618C7.08578 13.847 4.9375 12.0163 4.9375 9.60984C4.9375 8.61516 5.26891 7.69128 5.87069 7.00844C6.47937 6.31784 7.32434 5.9375 8.25 5.9375C9.53528 5.9375 10.3661 6.72931 10.8368 7.39356C11.2589 7.98931 11.4792 8.58988 11.5543 8.82041C11.6172 9.01338 11.7971 9.14397 12 9.14397C12.2029 9.14397 12.3828 9.01338 12.4457 8.82041C12.5208 8.58988 12.7411 7.98931 13.1632 7.39353C13.6339 6.72931 14.4647 5.9375 15.75 5.9375C16.6757 5.9375 17.5206 6.31784 18.1293 7.00844C18.7311 7.69128 19.0625 8.61516 19.0625 9.60984C19.0625 12.0163 16.9142 13.847 13.6623 16.6181Z" fill="#414042"/>
</svg>
