<svg width="141" height="30" viewBox="0 0 141 30" fill="none" xmlns="http://www.w3.org/2000/svg">
<path fill-rule="evenodd" clip-rule="evenodd" d="M119.791 29.15H111.96L107.464 22.7686L102.823 29.15H95.1371L103.404 18.5629L95.2829 8.12143H103.114L107.464 14.2129L111.96 8.12143H119.646L111.524 18.4186L119.791 29.15ZM93.1071 29.15H86.2914V8.12143H93.1071V29.15ZM93.2514 5.07571H86.1457V0H93.2514V5.07571ZM69.1771 29.15H62.3614V18.5629C62.3614 16.8771 62.6229 13.9557 60.7657 13.1971C58.6643 12.3371 56.9486 13.2057 55.2543 14.2129V29.15H48.5829V8.12143H55.2543V10.4414C58.23 7.83714 62.1257 6.49571 65.8414 8.41143C66.88 8.94714 67.7271 10.0071 68.3071 11.1671C70.4571 9.25571 73.0086 7.54143 75.9929 7.54143C78.3129 7.54143 80.0171 8.15143 81.2143 9.57143C82.3386 10.9071 82.9543 12.9071 82.9543 15.3729V29.15H76.1386V18.5629C76.1386 16.6886 76.4429 14.0514 74.6886 13.1971C72.7257 12.2414 70.8543 13.1529 69.1771 14.2129V29.15ZM34.6614 25.09C32.7114 25.09 31.0357 24.7286 31.0357 22.48C31.0357 20.6614 32.5486 20.0843 34.0671 19.8C35.4771 19.5371 37.0043 19.4114 38.4329 19.2886V23.64C37.5914 24.48 35.83 25.09 34.6614 25.09ZM45.2486 14.7929C45.2486 12.3271 44.3786 10.4429 42.6386 9.28143C38.6114 6.59572 30.3457 6.80286 25.96 8.55571V13.7771C28.1586 12.6986 30.2729 12.0371 32.9214 12.0371C34.8071 12.0371 36.1114 12.3271 37.1271 12.7629C38.3971 13.3971 38.4986 14.1814 38.5771 15.2286C35.3614 15.4071 31.0657 15.5043 28.1357 16.9686C25.5229 18.13 24.22 20.1986 24.22 23.06C24.22 24.9457 24.8 26.54 26.25 27.8457C27.5557 29.0057 29.15 29.7314 31.1814 29.7314C33.8271 29.7314 36.5571 28.7057 38.4329 26.8314V29.1514H45.2486V14.7929ZM7.97571 23.2043C6.31714 20.8143 6.48571 16.4414 8.26571 14.0671C9.75143 12.0871 13.1029 12.1986 15.2271 12.9071V23.3486C13.4486 24.58 9.62857 25.5843 7.97571 23.2043ZM15.2271 8.84714C13.42 8.04143 11.9614 7.54143 9.71714 7.54143C3.53143 7.54143 0 13.1157 0 18.7086C0 22.0443 0.767143 24.7657 2.32 26.6857C4.74 29.6771 8.58714 30.4843 12.0371 29.0057C13.0529 28.57 14.0671 27.8457 15.2271 26.9757V29.1514H22.0429V0H15.2271V8.84714ZM130.199 25.09C128.249 25.09 126.573 24.7286 126.573 22.48C126.573 20.6614 128.086 20.0843 129.604 19.8C131.014 19.5371 132.541 19.4114 133.97 19.2886V23.64C133.129 24.48 131.367 25.09 130.199 25.09ZM140.786 14.7929C140.786 12.3271 139.916 10.4429 138.176 9.28143C134.149 6.59572 125.883 6.80286 121.497 8.55571V13.7771C123.696 12.6986 125.81 12.0371 128.459 12.0371C130.344 12.0371 131.649 12.3271 132.664 12.7629C133.934 13.3971 134.036 14.1814 134.114 15.2286C130.899 15.4071 126.603 15.5043 123.673 16.9686C121.06 18.13 119.757 20.1986 119.757 23.06C119.757 24.9457 120.337 26.54 121.787 27.8457C123.093 29.0057 124.687 29.7314 126.719 29.7314C129.364 29.7314 132.094 28.7057 133.97 26.8314V29.1514H140.786V14.7929Z" fill="#E87018"/>
</svg>
