<svg width="24" height="24" viewBox="0 0 24 24" fill="none" xmlns="http://www.w3.org/2000/svg">
<path d="M10.5831 0.0288773C4.74765 0.0288773 0 4.76354 0 10.5831C0 16.4027 4.7477 21.1374 10.5831 21.1374C16.4186 21.1374 21.1663 16.4027 21.1663 10.5831C21.1663 4.76354 16.4186 0.0288773 10.5831 0.0288773ZM10.5831 19.4024C5.70418 19.4024 1.73494 15.4459 1.73494 10.5831C1.73494 5.72003 5.70418 1.76377 10.5831 1.76377C15.4621 1.76377 19.4313 5.72003 19.4313 10.5831C19.4314 15.4459 15.4621 19.4024 10.5831 19.4024Z" fill="#414042"/>
<path d="M23.7444 22.4886L18.048 16.8211C17.7082 16.4834 17.1591 16.4848 16.8211 16.8243C16.4834 17.1641 16.4848 17.7132 16.8243 18.0512L22.5207 23.7187C22.6901 23.887 22.9111 23.9711 23.1325 23.9711C23.3555 23.9711 23.5781 23.8858 23.7476 23.7155C24.0853 23.3757 24.0839 22.8266 23.7444 22.4886Z" fill="#414042"/>
</svg>
