<svg width="24" height="24" viewBox="0 0 24 24" fill="none" xmlns="http://www.w3.org/2000/svg">
<g clip-path="url(#clip0)">
<path d="M24 9H19.9246L15.6431 1.86403C15.4307 1.50955 14.97 1.39382 14.6141 1.60696C14.2588 1.8201 14.1438 2.28076 14.357 2.636L18.1754 9H5.82467L9.64306 2.63595C9.8562 2.28071 9.74122 1.82005 9.38599 1.60691C9.02929 1.39377 8.57009 1.5095 8.35695 1.86398L4.07541 8.99995H0V10.5H1.62781L3.5332 20.6638C3.7324 21.728 4.66257 22.5 5.74514 22.5H18.2549C19.3374 22.5 20.2676 21.728 20.4661 20.6645L22.3721 10.5H24C24 10.5 24 9 24 9ZM18.9917 20.3884C18.9258 20.7429 18.616 21 18.2549 21H5.74514C5.38405 21 5.07426 20.7429 5.00761 20.3877L3.15347 10.5H20.8466L18.9917 20.3884Z" fill="#414042"/>
</g>
<defs>
<clipPath id="clip0">
<rect width="24" height="24" fill="white"/>
</clipPath>
</defs>
</svg>
